<svg width="27" height="27" viewBox="0 0 27 27" fill="none" xmlns="http://www.w3.org/2000/svg">
<path d="M26.25 2.08984C26.25 1.32812 25.5469 0.625 24.7852 0.625H1.40625C0.644531 0.625 0 1.32812 0 2.08984V25.4688C0 26.2305 0.644531 26.875 1.40625 26.875H14.0039V16.7383H10.5469V12.7539H14.0039V9.82422C14.0039 6.48438 16.0547 4.60938 19.1016 4.60938C20.5078 4.60938 21.7969 4.72656 22.1484 4.78516V8.30078H20.0391C18.3984 8.30078 18.1055 9.12109 18.1055 10.2344V12.7539H22.0312L21.5039 16.7383H18.1055V26.875H24.7852C25.5469 26.875 26.25 26.2305 26.25 25.4688V2.08984Z" fill="#C64E3E"/>
</svg>
