<svg width="201" height="21" viewBox="0 0 201 21" fill="none" xmlns="http://www.w3.org/2000/svg">
<path fill-rule="evenodd" clip-rule="evenodd" d="M200.821 0.561246C200.946 1.41215 200.943 3.34903 199.93 4.28935L197.364 4.51384C197.677 4.03022 198.262 2.61017 198.104 0.798941L200.821 0.561246ZM196.912 4.5535C197.924 3.61318 197.927 1.6763 197.802 0.825393L195.085 1.06309C195.244 2.87432 194.658 4.29437 194.346 4.77799L196.912 4.5535ZM193.893 4.81756C194.906 3.87724 194.909 1.94036 194.783 1.08945L192.066 1.32715C192.225 3.13838 191.639 4.55843 191.327 5.04205L193.893 4.81756ZM191.772 1.35288C191.898 2.20378 191.895 4.14066 190.882 5.08098L188.316 5.30547C188.628 4.82185 189.214 3.40181 189.056 1.59057L191.772 1.35288ZM182.716 2.14519C182.841 2.99609 182.838 4.93298 181.826 5.87329L179.26 6.09778C179.572 5.61416 180.158 4.19412 179.999 2.38288L182.716 2.14519ZM172.77 6.66561C173.782 5.72529 173.785 3.7884 173.66 2.9375L170.943 3.1752C171.102 4.98643 170.516 6.40647 170.204 6.8901L172.77 6.66561ZM164.604 3.72981C164.729 4.58071 164.726 6.5176 163.713 7.45792L161.147 7.68241C161.46 7.19879 162.046 5.77874 161.887 3.96751L164.604 3.72981ZM185.727 1.88177C185.852 2.73267 185.849 4.66955 184.837 5.60987L182.271 5.83436C182.583 5.35074 183.169 3.93069 183.01 2.11946L185.727 1.88177ZM175.78 6.40218C176.793 5.46186 176.796 3.52498 176.671 2.67408L173.954 2.91177C174.113 4.72301 173.527 6.14305 173.215 6.62667L175.78 6.40218ZM167.615 3.46639C167.74 4.31729 167.737 6.25417 166.724 7.19449L164.158 7.41898C164.471 6.93536 165.056 5.51532 164.898 3.70408L167.615 3.46639ZM188.746 1.61766C188.871 2.46856 188.868 4.40545 187.855 5.34577L185.289 5.57026C185.602 5.08664 186.188 3.66659 186.029 1.85536L188.746 1.61766ZM178.799 6.13808C179.812 5.19776 179.815 3.26088 179.69 2.40997L176.973 2.64767C177.131 4.4589 176.546 5.87895 176.233 6.36257L178.799 6.13808ZM170.634 3.20229C170.759 4.05319 170.756 5.99007 169.743 6.93039L167.177 7.15488C167.49 6.67126 168.075 5.25121 167.917 3.43998L170.634 3.20229ZM161.14 5.85797C161.349 4.77501 161.297 4.17126 161.297 4.17126L24.6542 17.3427L24.8126 19.1539L160.38 7.5975C160.38 7.5975 160.93 6.94093 161.14 5.85797ZM24.0636 17.5464L24.2221 19.3576L14.4377 20.5179C11.9812 20.8342 6.53881 20.631 4.42122 17.2877C2.30363 13.9445 1.53777 12.7238 1.41954 12.5313C0.898189 11.2081 0.275113 7.79494 1.95356 4.72794C4.05162 0.894191 9.35696 5.90532 11.2945 8.92972C12.8446 11.3492 15.0056 14.8408 15.8924 16.2841C16.1879 16.7652 17.0546 17.3992 18.1375 17.6086C18.817 17.74 20.4068 17.6721 21.8671 17.6096C22.7085 17.5736 23.507 17.5395 24.0636 17.5464Z" fill="#FFCB70"/>
</svg>
