<svg id="Pineway_Logo" data-name="Pineway Logo" xmlns="http://www.w3.org/2000/svg" width="309.188" height="100" viewBox="0 0 309.188 100">
  <path id="Pineway_Logo-2" data-name="Pineway Logo" d="M193.6,99.507a6.483,6.483,0,0,1-2.1-1.348,6.269,6.269,0,0,1-1.391-2.026,6.331,6.331,0,0,1,0-4.983,6.269,6.269,0,0,1,1.391-2.026,6.484,6.484,0,0,1,2.1-1.348,7.051,7.051,0,0,1,5.179,0,6.483,6.483,0,0,1,2.1,1.348,6.3,6.3,0,0,1,1.392,2.026,6.331,6.331,0,0,1,0,4.983,6.3,6.3,0,0,1-1.392,2.026,6.483,6.483,0,0,1-2.1,1.348,7.051,7.051,0,0,1-5.179,0Zm1.216-9.167a3.36,3.36,0,0,0-1.832,1.884,3.933,3.933,0,0,0,0,2.836,3.4,3.4,0,0,0,3.2,2.157,3.382,3.382,0,0,0,3.206-2.157,3.933,3.933,0,0,0,0-2.836,3.49,3.49,0,0,0-4.578-1.884Zm-75.076,9.167a6.505,6.505,0,0,1-2.1-1.348,6.291,6.291,0,0,1-1.39-2.026,6.331,6.331,0,0,1,0-4.983,6.291,6.291,0,0,1,1.39-2.026,6.505,6.505,0,0,1,2.1-1.348,7.049,7.049,0,0,1,5.178,0,6.478,6.478,0,0,1,2.1,1.348,6.3,6.3,0,0,1,1.392,2.026,6.331,6.331,0,0,1,0,4.983,6.3,6.3,0,0,1-1.392,2.026,6.478,6.478,0,0,1-2.1,1.348,7.049,7.049,0,0,1-5.178,0Zm1.215-9.167a3.439,3.439,0,0,0-1.1.748,3.4,3.4,0,0,0-.732,1.136,3.933,3.933,0,0,0,0,2.836,3.4,3.4,0,0,0,.732,1.136,3.486,3.486,0,0,0,4.948,0,3.4,3.4,0,0,0,.731-1.136,3.933,3.933,0,0,0,0-2.836,3.4,3.4,0,0,0-3.2-2.157A3.439,3.439,0,0,0,120.951,90.34ZM101.5,99.507a6.61,6.61,0,0,1-2.1-1.348A6.245,6.245,0,0,1,98,96.144a6.389,6.389,0,0,1,0-5A6.316,6.316,0,0,1,99.4,89.125a6.521,6.521,0,0,1,2.078-1.348,6.691,6.691,0,0,1,2.571-.493,6.9,6.9,0,0,1,2.958.651,6.205,6.205,0,0,1,2.272,1.761l-2.131,1.92a4.114,4.114,0,0,0-1.391-1.153,3.772,3.772,0,0,0-1.709-.4,3.425,3.425,0,0,0-1.373.273,3.214,3.214,0,0,0-1.083.748,3.592,3.592,0,0,0-.714,1.136,3.793,3.793,0,0,0-.264,1.418,3.7,3.7,0,0,0,.274,1.435,3.607,3.607,0,0,0,.739,1.144,3.308,3.308,0,0,0,1.119.758,3.606,3.606,0,0,0,1.409.273,3.267,3.267,0,0,0,1.859-.537,2.553,2.553,0,0,0,1.064-1.4h-3.328V92.692h6.6v.88a6.817,6.817,0,0,1-.476,2.572,6.237,6.237,0,0,1-1.3,2.033,5.9,5.9,0,0,1-1.981,1.339A6.366,6.366,0,0,1,104.1,100,6.817,6.817,0,0,1,101.5,99.507Zm75.621-.018a6.493,6.493,0,0,1-2.1-1.339,6.336,6.336,0,0,1-1.391-7.018,6.121,6.121,0,0,1,1.4-2.015,6.653,6.653,0,0,1,2.1-1.34,6.872,6.872,0,0,1,2.607-.493,6.647,6.647,0,0,1,1.514.176,7.951,7.951,0,0,1,1.444.484,6.3,6.3,0,0,1,1.268.757,5.661,5.661,0,0,1,1,1l-2.043,2.009a4.569,4.569,0,0,0-1.453-1.224,3.726,3.726,0,0,0-1.734-.414,3.5,3.5,0,0,0-1.383.273,3.411,3.411,0,0,0-1.11.748,3.507,3.507,0,0,0-.738,1.136,3.642,3.642,0,0,0-.274,1.418,3.513,3.513,0,0,0,.274,1.4,3.408,3.408,0,0,0,.756,1.119,3.579,3.579,0,0,0,1.144.749,3.724,3.724,0,0,0,1.436.273,3.642,3.642,0,0,0,1.664-.387,4.292,4.292,0,0,0,1.382-1.145l1.99,1.955a6.177,6.177,0,0,1-2.263,1.725,6.745,6.745,0,0,1-2.879.653A6.933,6.933,0,0,1,177.121,99.489Zm-26.936.316V87.478h9.791V90.1h-6.763v2.307h4.509v2.537h-4.509v4.86Zm-15.445,0V87.478h3.029v9.651h6.5v2.677Zm134.8-27.64s3.251,4.272,7.14,4.272,7.387-3.7,11.265-13.386L268.579,18.743h8.8a6.93,6.93,0,0,1,5.929,4.525c1.848,4.463,10.9,24.926,10.9,24.926l5.228-12.368a21.676,21.676,0,0,0,1.211-7.077V18.743h8.543l-22.44,51.127a19.343,19.343,0,0,1-18.168,11.411Zm-73.5-36.21L184.3,64.006l-19.061-45.2s3.315-.127,8.033-.127,6.949,5.419,6.949,5.419l9.626,22.822,11.794-28.56,11.474,28.114s3.574-7.583,4.336-11.029a47.727,47.727,0,0,0,.7-6.5V18.806h8.861l-19.634,45.2ZM226.5,57.208c-2.324-3.767-4.845-14.281,4.207-19.508s16.632-9.272,15.3-13.515c-.866-2.758-4.2-4.983-9.408-1.646a25.17,25.17,0,0,0-4.511,3.9c-.484-.242-1.026-.5-1.026-.5a30.572,30.572,0,0,1,3.341-4.04c7.662-7.823,20.068-5.669,26.9,1.019a17.432,17.432,0,0,1,5.355,13.005V55.168c0,4.069,2.486,4.428,4.675,3.414l1.062.921c-13.132,7.14-16.957-1.4-16.957-1.4-5.7,3.747-11.06,5.175-15.626,5.175C233.348,63.275,228.474,60.41,226.5,57.208Zm24.707-34.753c2.825,5.92-4.5,11.344-4.5,11.344-7.1,4.461-9.881,9.638-9.754,14.228s1.658,8.161,7.523,9.946a10.752,10.752,0,0,0,9.945-1.913s.113-22.124.113-28.253a6.155,6.155,0,0,0-3.045-5.591ZM119.468,40.418c0-12.941,10.838-22.854,23.842-22.854s18.616,5.718,18.616,14.375A11.373,11.373,0,0,1,150,43.159c-8.926,0-15.874-.128-15.874,4.334A11.281,11.281,0,0,0,145.8,58.4c7.968,0,12.813-7.14,12.813-7.14l1.02.574s-5.61,11.347-18.614,11.347S119.468,53.358,119.468,40.418Zm13.005-7.331a44.9,44.9,0,0,0,.765,11.61,10.041,10.041,0,0,1,6.12-4.326c4.207-.972,12.495-3.968,12.495-12.893s-7.968-8.607-8.606-8.607c-.055,0-.169-.005-.333-.005C141.172,18.865,133.813,19.451,132.473,33.087Zm-32.066,29.2V29.2c0-3-1.34-8.033-7.14-8.033S83.385,26.2,83.385,26.2V62.284H71.591V23.651l2.232-.191c2.772,2.774,4.979,5.232,11.092-.637,5.476-5.26,13.642-5.228,13.642-5.228,13.833,0,13.833,12.049,13.833,12.049v32.64Zm-49.981,0V19c11.6-1.2,11.6,10.455,11.6,10.455V62.284ZM0,62.284V3.188H24.862S36.5,2.607,40.749,10.2c3.315,5.928,4,15.81-3.264,22.533-7.794,7.21-24.671,4.5-24.671,4.5V62.284ZM13.388,35.955s-.573.51,5.355.51,10.9-2.486,10.9-16.448C29.644,5.1,21.573,5.1,21.573,5.1H13.388ZM50.426,5.8a5.8,5.8,0,1,1,5.8,5.8A5.8,5.8,0,0,1,50.426,5.8Z" fill="#00807c"/>
</svg>
